<?xml version="1.0"?>
<svg xmlns="http://www.w3.org/2000/svg" id="Capa_1" enable-background="new 0 0 508.602 508.602" height="512px" viewBox="0 0 508.602 508.602" width="512px" class=""><g><path d="m256.899 84.49c-3.112-2.732-7.853-2.422-10.584.694-2.73 3.114-2.42 7.853.695 10.584 35.551 31.173 55.94 76.146 55.94 123.389 0 4.143 3.357 7.5 7.5 7.5s7.5-3.357 7.5-7.5c.001-51.563-22.251-100.647-61.051-134.667z" data-original="#000000" class="active-path" data-old_color="#000000" fill="#f80f00"/><path d="m211.666 72.088c6.034 2.991 11.95 6.396 17.585 10.121 1.273.842 2.709 1.244 4.129 1.244 2.434 0 4.821-1.183 6.264-3.365 2.284-3.455 1.335-8.108-2.121-10.393-6.149-4.064-12.607-7.782-19.196-11.047-3.708-1.839-8.211-.321-10.05 3.389-1.84 3.712-.323 8.212 3.389 10.051z" data-original="#000000" class="active-path" data-old_color="#000000" fill="#f80f00"/><path d="m88.582 390.702c3.209 0 6.179-2.076 7.168-5.305 1.214-3.961-1.014-8.154-4.974-9.368-22.587-6.921-43.043-18.431-60.798-34.21-3.098-2.753-7.837-2.472-10.589.624-2.751 3.097-2.472 7.837.624 10.589 19.378 17.22 41.707 29.782 66.368 37.339.733.225 1.473.331 2.201.331z" data-original="#000000" class="active-path" data-old_color="#000000" fill="#f80f00"/><path d="m138.906 398.201c4.143 0 7.5-3.357 7.5-7.5s-3.357-7.5-7.5-7.5c-7.854 0-15.75-.56-23.469-1.665-4.093-.58-7.9 2.261-8.487 6.362-.586 4.101 2.262 7.9 6.362 8.487 8.42 1.205 17.032 1.816 25.594 1.816z" data-original="#000000" class="active-path" data-old_color="#000000" fill="#f80f00"/><path d="m221.518 159.361c-2.431-3.354-7.121-4.1-10.475-1.67-3.354 2.432-4.101 7.121-1.67 10.475 10.803 14.901 16.513 32.534 16.513 50.991 0 47.961-39.02 86.98-86.98 86.98s-86.98-39.02-86.98-86.98 39.02-86.98 86.98-86.98c18.426 0 36.034 5.692 50.921 16.462 3.355 2.428 8.045 1.675 10.472-1.682 2.429-3.355 1.676-8.044-1.681-10.472-17.46-12.632-38.108-19.309-59.712-19.309-56.232 0-101.98 45.748-101.98 101.98s45.748 101.98 101.98 101.98 101.98-45.748 101.98-101.98c0-21.639-6.698-42.317-19.368-59.795z" data-original="#000000" class="active-path" data-old_color="#000000" fill="#f80f00"/><path d="m95.802 219.157c0 23.768 19.337 43.105 43.104 43.105s43.104-19.337 43.104-43.105-19.336-43.104-43.104-43.104-43.104 19.336-43.104 43.104zm71.208 0c0 15.497-12.607 28.104-28.104 28.104s-28.104-12.607-28.104-28.104 12.607-28.104 28.104-28.104c15.496-.001 28.104 12.606 28.104 28.104z" data-original="#000000" class="active-path" data-old_color="#000000" fill="#f80f00"/><path d="m401.665 226.775c1.885 0 3.772-.707 5.23-2.126 9.662-9.404 22.397-14.584 35.858-14.584h1.612c4.143 0 7.5-3.357 7.5-7.5s-3.357-7.5-7.5-7.5h-1.612c-1.318 0-2.628.051-3.934.127v-37.66c0-34.343 27.939-62.282 62.281-62.282 4.143 0 7.5-3.357 7.5-7.5s-3.357-7.5-7.5-7.5c-42.613 0-77.281 34.669-77.281 77.282v40.269c-10.191 3.023-19.569 8.489-27.388 16.099-2.968 2.889-3.032 7.637-.143 10.605 1.472 1.512 3.423 2.27 5.377 2.27z" data-original="#000000" class="active-path" data-old_color="#000000" fill="#f80f00"/><path d="m495.55 384.617c-.442.487-44.899 48.735-101.142 51.084-22.895.952-61.221-16.754-110.883-51.21-30.488-21.152-56.625-42.731-66.159-50.774 20.023-13.757 36.278-32.615 46.866-54.692 33.671.693 67.334 8.718 97.653 23.35l24.472 11.81c7.962 3.842 15.309 8.813 21.837 14.773 1.438 1.313 3.25 1.962 5.056 1.962 2.034 0 4.061-.822 5.54-2.442 2.793-3.06 2.578-7.803-.48-10.596-7.604-6.943-16.16-12.732-25.433-17.207l-1.548-.747v-38.438c0-4.795.684-9.592 2.031-14.258 1.149-3.979-1.145-8.138-5.123-9.287-3.981-1.149-8.138 1.145-9.287 5.123-1.739 6.021-2.621 12.218-2.621 18.422v31.2l-7.924-3.824c-30.518-14.727-64.221-23.155-98.102-24.645 4.862-14.138 7.508-29.297 7.508-45.064 0-76.593-62.313-138.906-138.905-138.906s-138.906 62.313-138.906 138.906 62.313 138.906 138.906 138.906c23.448 0 45.553-5.849 64.947-16.151 7.221 6.26 126.516 108.823 188.912 108.823.763 0 1.523-.016 2.269-.047 62.438-2.606 109.641-53.806 111.62-55.984 2.785-3.065 2.558-7.809-.509-10.595-3.066-2.784-7.808-2.558-10.595.508zm-480.55-165.46c0-68.323 55.584-123.907 123.906-123.907 68.321 0 123.905 55.584 123.905 123.906s-55.584 123.906-123.905 123.906c-68.322.001-123.906-55.583-123.906-123.905z" data-original="#000000" class="active-path" data-old_color="#000000" fill="#f80f00"/></g> </svg>
