<?xml version="1.0"?>
<svg xmlns="http://www.w3.org/2000/svg" id="Capa_1" enable-background="new 0 0 511.527 511.527" height="512px" viewBox="0 0 511.527 511.527" width="512px" class=""><g><path d="m504.027 461.664h-17.486v-22.029h4.887c4.143 0 7.5-3.358 7.5-7.5s-3.357-7.5-7.5-7.5h-4.887v-22.028h4.887c4.143 0 7.5-3.358 7.5-7.5s-3.357-7.5-7.5-7.5h-4.887v-22.029h4.887c4.143 0 7.5-3.358 7.5-7.5s-3.357-7.5-7.5-7.5h-4.887v-21.715h12.93c6.417 0 11.638-5.22 11.638-11.637v-33.562c0-6.417-5.221-11.637-11.638-11.637h-149.783c-11.065-31.9-32.884-60.174-63.104-79.161-3.51-2.204-8.138-1.146-10.341 2.361-2.204 3.507-1.146 8.137 2.36 10.34 17.939 11.27 32.588 26.167 43.362 43.219l-92.422 202.017c-24.845 3.749-51.065.75-75.75-9.833-69.413-29.753-102.267-109.056-73.236-176.777 28.177-65.729 103.952-97.035 172.503-71.271 3.877 1.458 8.201-.504 9.659-4.382 1.457-3.877-.505-8.202-4.382-9.659-36.581-13.749-76.444-13.199-112.247 1.544-35.979 14.815-64.148 42.465-79.32 77.857-1.946 4.54-3.636 9.127-5.09 13.745h-50.043c-6.417 0-11.637 5.221-11.637 11.637v33.562c0 6.417 5.22 11.637 11.637 11.637h13.75v21.715h-6.887c-4.143 0-7.5 3.358-7.5 7.5s3.357 7.5 7.5 7.5h6.887v22.029h-6.887c-4.143 0-7.5 3.358-7.5 7.5s3.357 7.5 7.5 7.5h6.887v22.028h-6.887c-4.143 0-7.5 3.358-7.5 7.5s3.357 7.5 7.5 7.5h6.887v22.029h-17.887c-4.143 0-7.5 3.358-7.5 7.5s3.357 7.5 7.5 7.5h496.527c4.143 0 7.5-3.358 7.5-7.5s-3.357-7.5-7.5-7.5zm-137.553-37.029h-21.833v-11.432l21.833 9.359zm-36.833 0h-15.352c5.524-5.439 10.668-11.355 15.352-17.748zm-37.833 18.14v18.888h-41.622c14.734-4.135 28.789-10.477 41.622-18.888zm15-3.14h22.833v22.029h-22.833zm37.833 0h21.833v22.029h-21.833zm36.833 0h19.804v22.029h-19.804zm34.803 4.276 20.767 8.902v8.85h-20.767zm35.767 10.499c1.378-.292 2.742-.697 4.077-1.231 6.08-2.431 10.849-7.085 13.428-13.103l1.992-4.647v26.234h-19.497zm19.497-56.153c-2.29-2.453-5.072-4.439-8.249-5.801l-11.248-4.822v-22.057h19.497zm-55.264-25.954v-6.725h20.767v15.627zm-34.803-14.92v-28.521h19.804v37.01zm-25.839-11.076c.029-.161.049-.322.077-.483.286-1.62.549-3.242.778-4.868.014-.098.031-.197.044-.295.021-.146.046-.292.066-.439.017-.124.021-.247.031-.37.49-3.663.841-7.328 1.05-10.989h8.792v22.091zm81.409-17.444v21.715h-20.767v-21.715zm34.497 21.715h-19.497v-21.715h19.497zm24.567-63.551v26.835h-138.345c-.416-9.071-1.676-18.05-3.728-26.835zm-165.218-21.692c10.311 22.728 14.313 48.098 10.778 73.329-.022.156-.048.312-.07.468-.211 1.466-.449 2.931-.711 4.396-.045.252-.089.505-.135.756-.297 1.607-.621 3.213-.98 4.817-1.277 5.694-2.934 11.314-4.964 16.8-1.438 3.885.545 8.199 4.43 9.637.858.318 1.737.468 2.603.468 3.049 0 5.915-1.873 7.034-4.898 1.216-3.284 2.3-6.615 3.276-9.975l18.871 8.09.063.027 34.74 14.892c.021.009.043.019.065.028l35.704 15.305c.021.009.041.018.061.026l15.729 6.743c2.336 1.001 4.142 2.852 5.085 5.211s.912 4.945-.09 7.28l-6.615 15.433c-1.001 2.335-2.852 4.141-5.21 5.084-2.36.943-4.945.912-7.281-.09l-31.539-13.52c-.021-.009-.043-.019-.065-.028l-34.737-14.891c-.023-.01-.045-.02-.068-.029l-46.85-20.083c-3.318-1.422-7.184-.277-9.191 2.727-8.485 12.701-18.894 23.515-30.645 32.284-.493.281-.948.619-1.363 1-12.409 9.016-26.264 15.778-40.906 20.101zm-163.38 196.329h-52.64v-22.029h5.678c8.418 5.837 17.546 10.928 27.334 15.124 6.462 2.769 13.019 5.061 19.628 6.905zm-84.447-59.058c4.995 7.019 10.61 13.653 16.807 19.811v2.218h-20.698v-22.028h3.891zm16.807 37.029v22.029h-20.698v-22.029zm-84.87-152.608h42.82c-1.79 8.923-2.705 17.902-2.809 26.835h-40.011zm25.387 41.836h15.221c.668 7.33 1.882 14.588 3.621 21.715h-18.842zm0 36.715h23.331c.152.424.314.845.469 1.269-.004.1-.015.199-.015.3v20.46h-23.785zm0 37.028h23.785v22.028h-23.785zm0 37.029h23.785v22.029h-23.785z" data-original="#000000" class="active-path" data-old_color="#000000" fill="#f80f00"/><path d="m371.243 222.089-9.322 9.322c-2.93 2.929-2.93 7.677-.001 10.606 1.465 1.465 3.384 2.197 5.304 2.197 1.919 0 3.839-.732 5.303-2.197l9.322-9.322c2.93-2.929 2.93-7.677.001-10.606s-7.678-2.93-10.607 0z" data-original="#000000" class="active-path" data-old_color="#000000" fill="#f80f00"/><path d="m313.958 190.948c1.919 0 3.839-.732 5.304-2.197l47.232-47.232c1.782 2.336 3.722 4.589 5.856 6.723 4.568 4.567 9.648 8.312 15.047 11.269l-33.989 33.989c-2.929 2.929-2.929 7.678 0 10.606 1.465 1.464 3.385 2.197 5.304 2.197s3.839-.732 5.304-2.197l38.578-38.578c5.48 1.417 11.105 2.141 16.732 2.141 2.229 0 4.456-.118 6.676-.34l-34.209 34.209c-2.929 2.929-2.929 7.678 0 10.606 1.465 1.465 3.384 2.197 5.304 2.197 1.919 0 3.839-.732 5.304-2.197l63.902-63.902c25.901-25.902 25.901-68.049 0-93.952-25.904-25.902-68.049-25.902-93.953 0l-55.771 55.772c-2.929 2.929-2.929 7.678 0 10.606 1.465 1.464 3.385 2.197 5.304 2.197s3.839-.732 5.304-2.197l26.078-26.078c-1.138 11.371.651 22.976 5.346 33.598l-49.955 49.955c-2.929 2.929-2.929 7.678 0 10.606 1.463 1.466 3.383 2.199 5.302 2.199zm105.368-141.091c13.171 0 26.343 5.013 36.369 15.04 20.054 20.054 20.054 52.685 0 72.739-20.055 20.054-52.686 20.053-72.738 0-20.054-20.054-20.054-52.685 0-72.739 10.026-10.027 23.198-15.04 36.369-15.04z" data-original="#000000" class="active-path" data-old_color="#000000" fill="#f80f00"/></g> </svg>
