<?xml version="1.0"?>
<svg xmlns="http://www.w3.org/2000/svg" id="Capa_1" enable-background="new 0 0 509.635 509.635" height="512px" viewBox="0 0 509.635 509.635" width="512px" class=""><g><path d="m496.582 94.459c-5.779-2.653-12.438-2.72-18.268-.187-5.832 2.533-10.326 7.446-12.331 13.479l-6.066 18.251 2.646-37.456c.92-13.023-8.086-24.525-20.949-26.755-6.999-1.214-14.229.585-19.844 4.933-5.614 4.347-9.165 10.9-9.742 17.977l-1.17 14.351-3.306-35.238c-1.246-13.271-12.236-23.279-25.566-23.279-8.471 0-15.955 4.039-20.627 10.332-23.89-12.466-50.654-19.036-77.785-19.036-42.401 0-81.183 15.776-110.8 41.757-.571.381-1.085.839-1.533 1.36-17.088 15.359-31.023 34.155-40.704 55.294-.288.484-.522 1.002-.696 1.546-9.306 20.874-14.489 43.975-14.489 68.266 0 61.719 33.417 115.772 83.101 145.043.522.406 1.086.736 1.678.986 24.606 14.115 53.098 22.194 83.443 22.194 14.003 0 27.865-1.734 41.313-5.129v107.157c0 4.142 3.358 7.5 7.5 7.5s7.5-3.358 7.5-7.5v-118.316c1.819.125 3.644.211 5.478.211h10.86c4.142 0 7.5-3.358 7.5-7.5s-3.358-7.5-7.5-7.5h-10.86c-18.277 0-35.849-7.721-48.21-21.184l-51.511-56.098c-5.018-5.464-4.839-13.854.407-19.1 5.334-5.334 13.796-5.444 19.268-.25l33.553 31.853c3.192 3.031 7.792 4.121 12.006 2.846 4.213-1.275 7.437-4.734 8.412-9.027l7.482-32.938c.191-.84.236-1.706.132-2.561l-4.297-35.594c-.496-4.112-4.234-7.047-8.345-6.547-4.112.496-7.043 4.232-6.547 8.345l4.141 34.302-6.132 26.996-30.078-28.554c-11.414-10.836-29.073-10.607-40.201.522-10.946 10.945-11.318 28.451-.849 39.852l51.511 56.098c9.671 10.533 21.943 18.191 35.375 22.378-12.331 3.137-25.052 4.735-37.907 4.735-3.22 0-6.413-.112-9.584-.309-.231-.449-.51-.882-.841-1.291-14.88-18.406-26.166-37.914-33.543-57.983-1.43-3.888-5.738-5.88-9.627-4.452-3.888 1.429-5.881 5.739-4.452 9.627 6.5 17.682 15.783 34.912 27.658 51.375-16.19-3.271-31.462-9.101-45.376-17.051-26.539-31.103-36.762-72.042-30.364-121.723 3.859-29.958 12.945-54.366 16.736-63.612 10.719 2.759 22.788 6.839 35.017 12.878-4.112 9.058-11.842 29.046-14.401 55.972-.392 4.124 2.633 7.784 6.757 8.176.241.023.48.034.718.034 3.822 0 7.089-2.909 7.458-6.791 2.247-23.649 8.938-41.611 12.654-50.089 10.73 6.628 21.246 14.943 30.727 25.391 1.48 1.631 3.515 2.46 5.557 2.46 1.797 0 3.601-.643 5.038-1.946 3.067-2.784 3.298-7.527.514-10.594-23.533-25.934-56.541-43.971-95.457-52.162-16.137-3.397-30.103-4.462-39.545-4.725 8.003-14.554 18.304-27.671 30.408-38.868 16.12 1.628 88.691 11.017 120.933 50.061l3.559 29.482c.497 4.112 4.23 7.048 8.345 6.547 4.112-.496 7.043-4.232 6.547-8.345l-9.298-77.025c-.728-6.028 3.188-11.595 9.107-12.948 3.188-.728 6.444-.135 9.169 1.67 2.726 1.806 4.542 4.573 5.114 7.793l17.424 98.115c.765 4.308 4.626 7.315 8.999 7.012 4.365-.311 7.768-3.843 7.915-8.219l3.876-115.882c.194-5.787 4.881-10.321 10.672-10.321 5.543 0 10.114 4.162 10.631 9.681l10.492 111.822c.402 4.276 3.93 7.485 8.218 7.485h.053c4.312-.026 7.828-3.287 8.179-7.586l7.419-91.017c.239-2.931 1.651-5.536 3.976-7.336 2.325-1.801 5.202-2.514 8.098-2.013 5.25.91 8.924 5.604 8.549 10.918l-6.343 89.782c-.296 4.213 2.605 8.009 6.749 8.829 4.142.817 8.271-1.584 9.602-5.59l22.61-68.026c.672-2.022 2.119-3.604 4.073-4.453 1.955-.848 4.099-.827 6.034.062 3.004 1.378 4.739 4.621 4.221 7.885l-28.888 181.814c-3.628 22.835-23.042 39.409-46.164 39.409-4.142 0-7.5 3.358-7.5 7.5s3.358 7.5 7.5 7.5c5.648 0 11.127-.753 16.339-2.164v45.091c0 4.142 3.358 7.5 7.5 7.5s7.5-3.358 7.5-7.5v-51.381c15.448-9.055 26.637-24.704 29.639-43.601l28.888-181.814c1.565-9.879-3.69-19.695-12.782-23.869zm-317.292 50.173c-4.497 11.324-12.836 35.159-16.666 64.488-4.777 36.588-.811 69.775 11.472 98.014-27.044-27.644-43.744-65.446-43.744-107.081 0-20.761 4.159-40.567 11.673-58.639 6.743-.082 20.468.234 37.265 3.218zm16.541-70.116c11.385-7.982 23.9-14.453 37.254-19.127.553.108 1.123.161 1.71.141.115-.006 11.796-.417 26.313 2.213 11.302 2.048 26.256 6.354 37.324 15.352-2.966 4.948-4.355 10.876-3.614 17.018l2.87 23.777c-31.232-25.393-76.685-35.532-101.857-39.374zm158.677 45.078-6.64-37.388c-1.296-7.302-5.416-13.579-11.598-17.675s-13.568-5.44-20.797-3.788c-2.092.478-4.073 1.189-5.922 2.099-8.728-7.608-19.344-12.642-29.827-15.963 1.28-.032 2.563-.049 3.85-.049 25.446 0 50.525 6.351 72.758 18.362-.002.054-.008.107-.009.161z" data-original="#000000" class="active-path" data-old_color="#000000" fill="#f80f00"/><path d="m443.333 417.627c-4.142 0-7.5 3.358-7.5 7.5v45.177c0 4.142 3.358 7.5 7.5 7.5s7.5-3.358 7.5-7.5v-45.177c0-4.142-3.358-7.5-7.5-7.5z" data-original="#000000" class="active-path" data-old_color="#000000" fill="#f80f00"/><path d="m7.5 160.483h93.236c4.142 0 7.5-3.358 7.5-7.5s-3.358-7.5-7.5-7.5h-93.236c-4.142 0-7.5 3.358-7.5 7.5s3.358 7.5 7.5 7.5z" data-original="#000000" class="active-path" data-old_color="#000000" fill="#f80f00"/><path d="m7.5 188.139h85.428c4.142 0 7.5-3.358 7.5-7.5s-3.358-7.5-7.5-7.5h-85.428c-4.142 0-7.5 3.358-7.5 7.5s3.358 7.5 7.5 7.5z" data-original="#000000" class="active-path" data-old_color="#000000" fill="#f80f00"/><path d="m302.462 393.748c4.142 0 7.5-3.358 7.5-7.5s-3.358-7.5-7.5-7.5h-8.925c-1.259-2.375-3.753-3.995-6.628-3.995s-5.37 1.62-6.628 3.995h-41.754v-.551c0-4.142-3.358-7.5-7.5-7.5s-7.5 3.358-7.5 7.5v.551h-40.882v-6.409c0-4.142-3.358-7.5-7.5-7.5s-7.5 3.358-7.5 7.5v6.409h-40.881v-26.641h30.791c4.142 0 7.5-3.358 7.5-7.5s-3.358-7.5-7.5-7.5h-30.791v-34.141c0-4.142-3.358-7.5-7.5-7.5h-48.382v-26.641h23.672c4.142 0 7.5-3.358 7.5-7.5s-3.358-7.5-7.5-7.5h-23.672v-26.641h23.672c4.142 0 7.5-3.358 7.5-7.5s-3.358-7.5-7.5-7.5h-87.054c-4.142 0-7.5 3.358-7.5 7.5s3.358 7.5 7.5 7.5h48.382v26.641h-48.382c-4.142 0-7.5 3.358-7.5 7.5s3.358 7.5 7.5 7.5h48.382v26.641h-48.382c-4.142 0-7.5 3.358-7.5 7.5s3.358 7.5 7.5 7.5h48.382v26.641h-48.382c-4.142 0-7.5 3.358-7.5 7.5s3.358 7.5 7.5 7.5h48.382v26.641h-48.382c-4.142 0-7.5 3.358-7.5 7.5s3.358 7.5 7.5 7.5h48.382v26.641h-48.382c-4.142 0-7.5 3.358-7.5 7.5s3.358 7.5 7.5 7.5h294.962c4.142 0 7.5-3.358 7.5-7.5s-3.358-7.5-7.5-7.5h-8.053v-26.641zm-78.935 0v26.641h-40.882v-26.641zm-55.882 0v26.641h-40.881v-26.641zm-96.763-83.283h40.882v26.641h-40.882zm0 41.641h40.882v26.641h-40.882zm0 41.642h40.882v26.641h-40.882zm208.527 26.641h-40.882v-26.641h40.882z" data-original="#000000" class="active-path" data-old_color="#000000" fill="#f80f00"/></g> </svg>
